<?xml version="1.0" encoding="UTF-8"?>
<svg width="24.607" height="100.2" version="1.1" viewBox="0 0 24.607 100.2" xmlns="http://www.w3.org/2000/svg"><title>Fichier 3Wii Controller 2</title><g data-name="Calque 2"><path d="m20.404 0h-16.201a4.2082 4.2082 0 0 0-4.2031 4.2031v91.793a4.2082 4.2082 0 0 0 4.2031 4.2031h16.201a4.2082 4.2082 0 0 0 4.2031-4.2031v-91.793a4.2082 4.2082 0 0 0-4.2031-4.2031zm3.6885 4.2031v91.793a3.6935 3.6935 0 0 1-3.6885 3.6885h-16.201a3.6935 3.6935 0 0 1-3.6885-3.6885v-91.793a3.6926 3.6926 0 0 1 3.6885-3.6875h16.201a3.6926 3.6926 0 0 1 3.6885 3.6875z"/><path id="button_a" d="m12.514 27.517a3.9402 3.9402 0 1 0 3.9404 3.9399 3.9438 3.9438 0 0 0-3.9404-3.9399zm3.4258 3.9399a3.4253 3.4253 0 1 1-3.4258-3.4243 3.4291 3.4291 0 0 1 3.4258 3.4243z"/><path id="button_power" d="m5.9912 7.1484a2.2568 2.2568 0 1 0-2.2568-2.2568 2.2591 2.2591 0 0 0 2.2568 2.2568zm-1.7412-2.2568a1.7412 1.7412 0 1 1 1.7412 1.7412 1.743 1.743 0 0 1-1.7412-1.7412z"/><path id="button_minus" d="m5.6758 45.665a2.2566 2.2566 0 1 0 2.2559 2.2568 2.2591 2.2591 0 0 0-2.2559-2.2568zm1.7412 2.2569a1.7417 1.7417 0 1 1-1.7412-1.7412 1.7438 1.7438 0 0 1 1.7412 1.7412z"/><path id="button_home" d="m12.462 45.639a2.2566 2.2566 0 1 0 2.2559 2.2568 2.2591 2.2591 0 0 0-2.2559-2.2568zm1.7412 2.2568a1.7417 1.7417 0 1 1-1.7412-1.7412 1.7438 1.7438 0 0 1 1.7412 1.7412z"/><path id="button_plus" d="m19.143 45.665a2.2566 2.2566 0 1 0 2.2559 2.2568 2.2591 2.2591 0 0 0-2.2559-2.2568zm1.7412 2.2568a1.7417 1.7417 0 1 1-1.7412-1.7412 1.7438 1.7438 0 0 1 1.7412 1.7413z"/><path id="button_one" d="m12.514 76.743a2.94 2.94 0 1 0-2.9394-2.9395 2.9433 2.9433 0 0 0 2.9394 2.9395zm-2.4248-2.9395a2.4253 2.4253 0 1 1 2.4248 2.4248 2.4286 2.4286 0 0 1-2.4248-2.4248z"/><path id="button_two" d="m15.454 82.535a2.9399 2.9399 0 1 0-2.9404 2.9404 2.9433 2.9433 0 0 0 2.9404-2.9404zm-0.51465 0a2.4253 2.4253 0 1 1-2.4258-2.4248 2.4294 2.4294 0 0 1 2.4258 2.4248z"/><path d="m10.818 56.477a0.33594 0.33594 0 1 0-0.33594-0.33594 0.33675 0.33675 0 0 0 0.33594 0.33594z"/><path d="m12.548 56.477a0.33594 0.33594 0 1 0-0.33691-0.33594 0.33592 0.33592 0 0 0 0.33691 0.33594z"/><circle cx="14.276" cy="56.141" r=".33594"/><path d="m10.818 58.334a0.36621 0.36621 0 1 0-0.36621-0.36621 0.36656 0.36656 0 0 0 0.36621 0.36621z"/><path d="m12.548 58.334a0.36621 0.36621 0 1 0-0.36719-0.36621 0.36634 0.36634 0 0 0 0.36719 0.36621z"/><circle cx="14.276" cy="57.968" r=".36621"/><path d="m10.818 63.074a0.36621 0.36621 0 1 0 0.36719 0.36621 0.36634 0.36634 0 0 0-0.36719-0.36621z"/><path d="m12.548 63.074a0.36621 0.36621 0 1 0 0.36621 0.36621 0.36656 0.36656 0 0 0-0.36621-0.36621z"/><circle cx="14.276" cy="63.44" r=".36621"/><path d="m10.818 59.307a0.47461 0.47461 0 1 0 0.47559 0.47461 0.47512 0.47512 0 0 0-0.47559-0.47461z"/><path d="m10.818 61.098a0.47461 0.47461 0 1 0 0.47559 0.47461 0.47513 0.47513 0 0 0-0.47559-0.47461z"/><circle cx="12.548" cy="59.782" r=".47461"/><circle cx="12.548" cy="61.573" r=".47461"/><circle cx="14.276" cy="59.782" r=".47461"/><circle cx="14.276" cy="61.573" r=".47461"/><path d="m10.818 64.918a0.33643 0.33643 0 1 0 0.33691 0.33593 0.33592 0.33592 0 0 0-0.33691-0.33593z"/><path d="m12.548 64.918a0.33643 0.33643 0 1 0 0.33594 0.33593 0.33675 0.33675 0 0 0-0.33594-0.33593z"/><path d="m14.276 64.918a0.33643 0.33643 0 1 0 0.33593 0.33593 0.33592 0.33592 0 0 0-0.33593-0.33593z"/><path d="m5.0693 90.447h1.7247v-1.7256h-1.7247zm1.3682-1.3682v1.0108h-1.0107v-1.0108z"/><path d="m6.1504 88.513a0.17046 0.17046 0 0 0 0.1709-0.17089v-0.43653a0.17047 0.17047 0 0 0-0.1709-0.1709h-0.43652a0.17047 0.17047 0 0 0-0.1709 0.1709v0.43653a0.17046 0.17046 0 0 0 0.1709 0.17089zm-0.10742-0.5v0.22168h-0.22168v-0.22168z"/><path d="m9.4629 90.447h1.7246v-1.7256h-1.7246zm1.3682-1.3682v1.0108h-1.0107v-1.0108z"/><path d="m10.11 88.513a0.17025 0.17025 0 0 0 0.16992-0.17089v-0.43653a0.17026 0.17026 0 0 0-0.16992-0.1709h-0.4375a0.17026 0.17026 0 0 0-0.16992 0.1709v0.43653a0.17025 0.17025 0 0 0 0.16992 0.17089zm-0.10742-0.5v0.22168h-0.22168v-0.22168z"/><path d="m10.978 88.513a0.17046 0.17046 0 0 0 0.1709-0.17089v-0.43653a0.17047 0.17047 0 0 0-0.1709-0.1709h-0.43654a0.17027 0.17027 0 0 0-0.16993 0.1709v0.43653a0.17026 0.17026 0 0 0 0.16993 0.17089zm-0.10742-0.5v0.22168h-0.22168v-0.22168z"/><path d="m13.856 90.447h1.7246v-1.7256h-1.7246zm1.3682-1.3682v1.0108h-1.0107v-1.0108z"/><path d="m14.24 88.342v-0.43653a0.17047 0.17047 0 0 0-0.17089-0.1709h-0.43653a0.17047 0.17047 0 0 0-0.1709 0.1709v0.43653a0.17047 0.17047 0 0 0 0.1709 0.17089h0.43653a0.17046 0.17046 0 0 0 0.17089-0.17089zm-0.27832-0.32911v0.22168h-0.22168v-0.22168z"/><path d="m14.501 87.735a0.17047 0.17047 0 0 0-0.1709 0.1709v0.43653a0.17046 0.17046 0 0 0 0.1709 0.17089h0.43652a0.17046 0.17046 0 0 0 0.1709-0.17089v-0.43653a0.17047 0.17047 0 0 0-0.1709-0.1709zm0.10742 0.5v-0.22168h0.22168v0.22168z"/><path d="m15.806 87.735h-0.43652a0.17047 0.17047 0 0 0-0.1709 0.1709v0.43653a0.17046 0.17046 0 0 0 0.1709 0.17089h0.43652a0.17026 0.17026 0 0 0 0.16993-0.17089v-0.43653a0.17027 0.17027 0 0 0-0.16993-0.1709zm-0.3291 0.5v-0.22168h0.22168v0.22168z"/><path d="m18.25 90.447h1.7246v-1.7256h-1.7246zm1.3682-1.3682v1.0108h-1.0107v-1.0108z"/><path d="m18.035 87.735h-0.43653a0.17026 0.17026 0 0 0-0.16992 0.1709v0.43653a0.17025 0.17025 0 0 0 0.16992 0.17089h0.43653a0.17046 0.17046 0 0 0 0.17089-0.17089v-0.43653a0.17047 0.17047 0 0 0-0.17089-0.1709zm-0.32911 0.5v-0.22168h0.22168v0.22168z"/><path d="m18.899 88.513a0.17026 0.17026 0 0 0 0.16993-0.17089v-0.43653a0.17027 0.17027 0 0 0-0.16993-0.1709h-0.43652a0.17047 0.17047 0 0 0-0.1709 0.1709v0.43653a0.17046 0.17046 0 0 0 0.1709 0.17089zm-0.10742-0.5v0.22168h-0.22168v-0.22168z"/><path d="m19.763 88.513a0.17046 0.17046 0 0 0 0.17089-0.17089v-0.43653a0.17047 0.17047 0 0 0-0.17089-0.1709h-0.43653a0.17047 0.17047 0 0 0-0.1709 0.1709v0.43653a0.17047 0.17047 0 0 0 0.1709 0.17089zm-0.10743-0.5v0.22168h-0.22168v-0.22168z"/><path d="m20.626 87.735h-0.43653a0.17047 0.17047 0 0 0-0.1709 0.1709v0.43653a0.17047 0.17047 0 0 0 0.1709 0.17089h0.43653a0.17047 0.17047 0 0 0 0.1709-0.17089v-0.43653a0.17047 0.17047 0 0 0-0.1709-0.1709zm-0.3291 0.5v-0.22168h0.22167v0.22168z"/><path d="m5.9805 14.834v3.0772a0.73144 0.73144 0 0 0 0.73047 0.73145h3.1172a0.21579 0.21579 0 0 1 0.21582 0.21533v3.1172a0.73216 0.73216 0 0 0 0.73144 0.731h3.0772a0.73133 0.73133 0 0 0 0.73047-0.73095v-3.1172a0.21579 0.21579 0 0 1 0.21582-0.21533h3.1172a0.73144 0.73144 0 0 0 0.73046-0.73145v-3.0771a0.73143 0.73143 0 0 0-0.73046-0.73144h-3.1172a0.21579 0.21579 0 0 1-0.21582-0.21533v-3.1172a0.73134 0.73134 0 0 0-0.73047-0.731h-3.0772a0.73217 0.73217 0 0 0-0.73144 0.731v3.1172a0.21579 0.21579 0 0 1-0.21582 0.21533h-3.1172a0.73144 0.73144 0 0 0-0.73047 0.73148zm8.8184-0.21582h3.1172a0.21589 0.21589 0 0 1 0.21582 0.21582v3.0772a0.21589 0.21589 0 0 1-0.21582 0.21582h-3.1172a0.73134 0.73134 0 0 0-0.73047 0.731v3.1171a0.21579 0.21579 0 0 1-0.21582 0.21533h-3.0772a0.21663 0.21663 0 0 1-0.2168-0.21533v-3.1172a0.73133 0.73133 0 0 0-0.73046-0.731h-3.1172a0.21589 0.21589 0 0 1-0.21582-0.21582v-3.0771a0.21589 0.21589 0 0 1 0.21582-0.21582h3.1172a0.73132 0.73132 0 0 0 0.73046-0.73095v-3.1172a0.21663 0.21663 0 0 1 0.2168-0.21533h3.0772a0.21579 0.21579 0 0 1 0.21582 0.21533v3.1172a0.73133 0.73133 0 0 0 0.73047 0.73097z"/><rect id="dpad_up" x="12.066" y="11.578" width=".515" height="2.4883"/><rect id="dpad_down" x="12.057" y="18.679" width=".515" height="2.4883"/><rect id="dpad_left" x="7.6279" y="16.115" width="2.487" height=".51563"/><rect id="dpad_right" x="14.729" y="16.154" width="2.487" height=".51563"/></g></svg>
