<svg xmlns="http://www.w3.org/2000/svg" viewBox="0 0 23.77182 125.24963749999999" x="0px" y="0px"><title>Fichier 2Wii Controller 1</title><g data-name="Calque 2"><g data-name="Calque 2"><path d="M23.60859,22.17285a.672.672,0,0,0,.15723-.53515l-.42773-3.19092a.79438.79438,0,0,1,.06054-.4502,1.34612,1.34612,0,0,0,.27344-.853V14.67139c0-.38575-.167-.67188-.41406-.72315a.49189.49189,0,0,1-.01367-.19629l.27441-2.73974a.6782.6782,0,0,0-.68359-.75489h-.8711l-.02539-7.791A2.47976,2.47976,0,0,0,19.46406,0H8.9875A2.308,2.308,0,0,0,6.66133,2.479l.78516,12.33741v.0083c-.10547,6.41943-3.88672,8.56054-5.91895,9.71142C.5168,25.10742-.28008,25.55908.094,26.26074a5.60136,5.60136,0,0,0,.51562.78028,13.66745,13.66745,0,0,0,2.30762,2.21533L1.61055,31.42529A9.73623,9.73623,0,0,0,.42891,35.65967l-.14942,59.416a4.52365,4.52365,0,0,0,2.03321,3.543l.75586.4375a10.00464,10.00464,0,0,0,4.249,1.14356h12.4668a2.464,2.464,0,0,0,2.46-2.46778l-.03907-12.31445h.21a.7306.7306,0,0,0,.73046-.73047V80.42627a.73144.73144,0,0,0-.73046-.73145h-.22852L22.176,76.31689h.23926a.73059.73059,0,0,0,.73046-.73046V71.32568a.73143.73143,0,0,0-.73046-.73144h-.25782L22.092,50.17334h.165a.68533.68533,0,0,0,.626-.73145V46.75928a.67723.67723,0,0,0-.60645-.73047h-.19824l-.0332-10.53223H22.3a.73061.73061,0,0,0,.73047-.73047V28.40088A.73144.73144,0,0,0,22.3,27.66943h-.28027l-.0166-5.2705h1.0957A.66749.66749,0,0,0,23.60859,22.17285ZM1.0168,26.72412a5.09,5.09,0,0,1-.46875-.70654c-.12988-.24512.38379-.55225,1.2334-1.0332A10.63235,10.63235,0,0,0,7.632,17.73584l.07715,1.21729a7.9986,7.9986,0,0,1-.96387,3.94775L3.18574,28.81152A13.15,13.15,0,0,1,1.0168,26.72412ZM.93965,37.36377H5.26582a2.9814,2.9814,0,0,1,2.97754,2.97852V92.20947c0,1.64844-.99609,3.06153-2.2207,3.14844a15.83088,15.83088,0,0,1-5.22754-.42676Zm15.51074,17.581h-.51172V52.856h.51172Zm0-2.60351h-.51172V32.8667h.51172Zm0-19.98926H15.424V91.26514c.05079,5.3164-.94433,6.88574-.9541,6.90039l-.05371.082.41992.293.05762-.08106c.04492-.06347,1.09863-1.62793,1.04492-7.19726v-35.96h.51172V99.68506H7.31758a9.39786,9.39786,0,0,1-3.99121-1.0752l-.75488-.43847A3.9731,3.9731,0,0,1,.80586,95.29932a19.798,19.798,0,0,0,3.876.47851c.48242,0,.90625-.02929,1.36621-.0625,1.4082-.10156,2.55273-1.67383,2.55273-3.50586V40.34229a3.33879,3.33879,0,0,0-3.335-3.335H.94063l.00293-1.34668a9.12293,9.12293,0,0,1,1.10937-3.96875L7.1877,23.167a8.61568,8.61568,0,0,0,1.03613-4.24658L7.175,2.44629A1.79558,1.79558,0,0,1,8.9875.51563h6.97656l.22461,1.32373a67.034,67.034,0,0,1,.26172,6.88769Zm4.71,66.75977a1.93625,1.93625,0,0,1-1.376.57324H16.80684V8.72705a67.35854,67.35854,0,0,0-.26563-6.94726L16.32734.51563h3.13672a1.96147,1.96147,0,0,1,1.959,1.95214l.30664,95.26514A1.93117,1.93117,0,0,1,21.16035,99.11182Zm1.25489-18.90137a.21589.21589,0,0,1,.21582.21582V84.687a.21589.21589,0,0,1-.21582.21582h-.21192l-.01465-4.69238Zm0-9.10059a.21589.21589,0,0,1,.21582.21582v4.26075a.21589.21589,0,0,1-.21582.21582H22.174l-.01464-4.69239Zm-.13965-24.5664a.24055.24055,0,0,1,.09179.21582v2.68261c0,.123-.06738.2168-.11035.2168H22.09l-.00977-3.11523ZM22.3,28.18506a.21589.21589,0,0,1,.21582.21582v6.36523a.21589.21589,0,0,1-.21582.21582h-.25683l-.02149-6.79687Zm-.334-17.41162h.86914a.17072.17072,0,0,1,.12988.05371.16705.16705,0,0,1,.04.13379l-.27344,2.74023a1.14573,1.14573,0,0,0,.002.23877h-.75781Zm.01172,3.68213h1.12109l.0166-.002a.52843.52843,0,0,1,.041.21778v2.47216a1.16233,1.16233,0,0,1-.06739.37891l-1.10156.03809Zm.02343,7.42724-.01172-3.80615.85352-.02978a1.5098,1.5098,0,0,0-.0166.46826l.42773,3.19091a.15808.15808,0,0,1-.0332.12647.15509.15509,0,0,1-.12207.05029Z"/></g></g><text x="0" y="115.19971" fill="#000000" font-size="5px" font-weight="bold" font-family="'Helvetica Neue', Helvetica, Arial-Unicode, Arial, Sans-serif">Created by Maxence Béranger</text><text x="0" y="120.19971" fill="#000000" font-size="5px" font-weight="bold" font-family="'Helvetica Neue', Helvetica, Arial-Unicode, Arial, Sans-serif">from the Noun Project</text></svg>