<?xml version="1.0" encoding="UTF-8"?>
<svg width="24.607" height="100.2" version="1.1" viewBox="0 0 24.607 100.2" xmlns="http://www.w3.org/2000/svg"><title>Fichier 4Wii Controller 3</title><g data-name="Calque 2"><path d="m20.405 0h-16.202a4.2082 4.2082 0 0 0-4.2031 4.2031v91.794a4.2082 4.2082 0 0 0 4.2031 4.2031h16.202a4.2074 4.2074 0 0 0 4.2022-4.2031v-91.794a4.2073 4.2073 0 0 0-4.2022-4.2031zm-4.7588 91.326h-6.3125a1.6788 1.6788 0 0 0-1.6777 1.6777v3.1377a47.028 47.028 0 0 1-4.9228-0.39355 8.7695 8.7695 0 0 1-2.2188-0.52735v-56.821l0.48535-0.56541c0.23633-0.27539 1.8975-0.6748 4.2832-0.6748h13.992c2.3857 0 4.0469 0.39941 4.2832 0.6748l0.53418 0.62207v56.966a35.421 35.421 0 0 1-6.7686 0.67773v-3.0957a1.6788 1.6788 0 0 0-1.6777-1.6777zm0.18555 2.2871-0.24609-1.7725h0.06054a1.1645 1.1645 0 0 1 1.1621 1.1631v1.2939h-0.93159v-0.03125a5.5599 5.5599 0 0 0-0.045-0.65332zm-6.1856 0.15918c0.00391-0.04 0.00879-0.07715 0.0127-0.11035l0.25488-1.8213h5.3096l0.25489 1.8213c0.0039 0.0332 0.0088 0.07031 0.01269 0.11035zm5.874 0.49414v0.78906a0.13733 0.13733 0 0 1-0.1377 0.13672h-5.6289a0.13712 0.13712 0 0 1-0.13672-0.13672v-0.78906c0-0.041 0.00195-0.08789 0.0039-0.13769h5.8955c0.0019 0.0498 0.0039 0.09668 0.0039 0.13769zm-6.1865-2.4258h0.21875l-0.24707 1.7725a5.7113 5.7113 0 0 0-0.04589 0.65332v0.03125h-1.0889v-1.2939a1.1653 1.1653 0 0 1 1.1631-1.1631zm-1.1631 2.8144h1.0889v0.40039a0.49471 0.49471 0 0 0 0.49414 0.49414h5.6289a0.49471 0.49471 0 0 0 0.49414-0.49414v-0.40039h0.93164v1.4658c-2.8506 0.11036-5.9805 0.124-8.6377 0.03809zm15.922 1.1299v0.21191a3.6926 3.6926 0 0 1-3.6875 3.6885h-16.202a3.6935 3.6935 0 0 1-3.6885-3.6885v-0.39844a9.9895 9.9895 0 0 0 2.166 0.50293 75.449 75.449 0 0 0 9.4727 0.45508c4.6944 0 10.332-0.24121 11.939-0.77148zm-4.8174-58.983h-13.992c-2.206 0-4.1641 0.34375-4.5547 0.79883l-0.21387 0.249v-33.646a3.6922 3.6922 0 0 1 3.6885-3.687h16.202a3.6914 3.6914 0 0 1 3.6875 3.687v33.703l-0.26172-0.30566c-0.3916-0.45508-2.3506-0.79883-4.5557-0.79883z"/><path id="button_b" d="m16.066 15.576h-7.3115a1.4385 1.4385 0 0 0-1.4473 1.5337l0.60351 10.52a1.4997 1.4997 0 0 0 1.5615 1.2827h0.02148l6.2598-0.0752a1.5821 1.5821 0 0 0 1.5488-1.5288l0.25293-10.206a1.4868 1.4868 0 0 0-1.4892-1.5264zm0.97461 1.5137-0.22754 9.1611a9.5554 9.5554 0 0 0-8.4648 0.0064l-0.52636-9.1778a0.92248 0.92248 0 0 1 0.93261-0.9873h7.3115a0.97232 0.97232 0 0 1 0.97461 0.99756zm-0.23731 9.5566-0.0166 0.64941a1.0603 1.0603 0 0 1-1.0381 1.0259l-6.2617 0.07471-0.02148 4.8e-4a0.97469 0.97469 0 0 1-1.04-0.79687l-0.05469-0.9502a9.1131 9.1131 0 0 1 8.4326-0.0034z"/><path d="m10.826 97.182a0.47563 0.47563 0 0 0-0.12793 0.35449l0.07031 1.3174a0.51838 0.51838 0 0 0 0.51172 0.48339h2.3672a0.51746 0.51746 0 0 0 0.51074-0.48339l0.07129-1.3164a0.46772 0.46772 0 0 0-0.12988-0.35547 0.47381 0.47381 0 0 0-0.34766-0.14844h-2.5772a0.47759 0.47759 0 0 0-0.34863 0.14844zm2.9756 1.6514v1e-3a0.16249 0.16249 0 0 1-0.1543 0.14551h-2.3672a0.16022 0.16022 0 0 1-0.15427-0.14651l-0.07129-1.3164a0.114 0.114 0 0 1 0.03125-0.08789 0.12024 0.12024 0 0 1 0.08886-0.03808h2.5772a0.12123 0.12123 0 0 1 0.08985 0.03906 0.11794 0.11794 0 0 1 0.03125 0.08691z"/></g></svg>
